<?xml version="1.0" standalone="no"?>
<!DOCTYPE svg PUBLIC "-//W3C//DTD SVG 20010904//EN"
 "http://www.w3.org/TR/2001/REC-SVG-20010904/DTD/svg10.dtd">
<svg version="1.0" xmlns="http://www.w3.org/2000/svg"
 width="601.000000pt" height="601.000000pt" viewBox="0 0 601.000000 601.000000"
 preserveAspectRatio="xMidYMid meet">

<g transform="translate(0.000000,601.000000) scale(0.100000,-0.100000)"
fill="#000000" stroke="none">
<path d="M0 5234 c0 -735 1 -776 18 -769 56 23 72 24 72 4 0 -10 4 -19 9 -19
5 0 26 -16 47 -36 22 -20 49 -40 62 -45 32 -12 174 -16 191 -5 19 12 109 8
131 -6 9 -6 22 -24 27 -39 8 -21 18 -29 36 -29 14 0 32 -7 41 -15 8 -8 20 -15
26 -15 11 0 49 -26 92 -64 9 -8 19 -12 22 -8 3 3 6 0 6 -7 0 -7 3 -10 8 -7 4
2 21 -31 37 -75 17 -45 35 -79 43 -79 7 0 11 -4 8 -8 -7 -11 26 -39 47 -39 9
0 14 4 11 9 -12 19 26 6 60 -21 44 -35 101 -48 125 -28 34 29 45 29 18 -1 -76
-81 -296 -130 -374 -82 -33 20 -51 58 -38 82 5 7 0 5 -11 -4 -17 -17 -17 -19
-1 -53 12 -25 30 -42 60 -55 47 -21 149 -40 215 -40 23 0 42 -2 42 -4 0 -2 -7
-17 -15 -32 -8 -16 -15 -37 -15 -47 0 -16 -6 -18 -48 -13 l-47 5 38 -11 c46
-14 47 -23 5 -38 -30 -10 -31 -12 -14 -22 10 -6 60 -11 111 -12 59 -1 91 -5
87 -11 -47 -82 -106 -155 -125 -157 -12 0 -26 -2 -32 -3 -5 -2 -14 -3 -19 -4
-5 0 1 -13 15 -27 l24 -26 -25 6 -25 7 28 -26 c23 -20 28 -31 23 -51 -10 -40
20 -127 56 -164 18 -18 29 -31 23 -28 -5 2 -28 13 -50 23 -22 10 -53 27 -70
37 -19 13 -13 4 18 -26 45 -43 46 -45 18 -35 -17 6 -34 15 -37 20 -3 5 -10 9
-17 9 -6 0 12 -24 41 -53 29 -29 50 -56 47 -59 -8 -8 94 -46 145 -54 22 -4 43
-10 45 -14 5 -8 -42 -53 -85 -81 -23 -15 -21 -16 70 -24 52 -5 116 -8 143 -8
26 0 47 -1 47 -2 0 -1 -9 -22 -19 -46 -20 -44 -19 -75 5 -134 14 -37 65 -105
87 -116 19 -11 18 -8 -6 20 -37 44 -42 132 -11 197 22 46 34 43 34 -8 0 -24 9
-72 20 -106 30 -97 36 -188 15 -237 -20 -45 -31 -102 -14 -73 9 15 133 108
145 108 4 0 4 -20 3 -44 -2 -24 -1 -42 3 -39 12 7 9 -11 -7 -51 -19 -44 -12
-45 25 -5 l29 32 -1 -75 0 -75 -46 9 c-73 15 -453 -3 -588 -28 -25 -5 -31 -10
-30 -29 0 -13 4 -21 8 -18 8 4 13 -24 7 -42 -1 -5 -3 -23 -4 -40 -2 -45 -23
-77 -48 -73 -25 3 -50 47 -37 63 10 13 -28 105 -44 105 -6 0 -33 -6 -61 -13
l-50 -13 0 -165 c0 -141 4 -178 24 -259 20 -77 25 -121 25 -235 1 -136 0 -142
-28 -197 -16 -32 -32 -58 -35 -58 -3 0 -19 9 -36 20 -16 11 -36 20 -44 20 -7
0 -45 -31 -85 -69 -47 -45 -82 -71 -104 -76 -26 -5 -40 -18 -60 -52 -51 -87
-67 -100 -127 -108 -35 -4 -74 -2 -103 6 -47 11 -48 11 -109 -28 -34 -22 -75
-46 -92 -53 l-31 -12 0 -429 0 -429 3005 0 3005 0 0 54 0 54 -67 37 c-98 54
-131 81 -153 125 -17 34 -28 42 -73 54 -28 8 -70 17 -92 21 -22 4 -48 14 -57
22 -10 9 -24 13 -32 10 -10 -4 -26 6 -43 29 -16 20 -50 47 -78 61 -27 14 -63
35 -79 46 -23 16 -48 21 -112 23 -83 3 -83 3 -166 60 -134 92 -137 96 -144
130 -8 41 -15 47 -86 67 -62 16 -71 12 -37 -19 14 -12 32 -17 57 -15 l37 3
-29 -31 c-35 -36 -80 -55 -94 -38 -5 7 -17 28 -27 47 -10 19 -26 41 -36 48
-11 7 -19 23 -19 35 0 21 0 21 16 -2 11 -15 20 -19 26 -13 7 7 2 20 -12 40
-21 28 -22 34 -11 103 7 41 16 88 21 104 4 17 11 41 15 55 6 24 5 24 -9 6 -15
-19 -16 -19 -36 -1 -12 11 -20 31 -20 51 0 33 -18 84 -29 84 -18 0 -74 -67
-92 -110 -23 -53 -33 -59 -64 -36 -12 8 -16 20 -12 35 7 28 0 27 -29 -9 -25
-30 -48 -31 -58 -3 -4 8 7 40 24 71 16 31 30 69 30 85 0 16 33 96 75 180 61
122 78 168 90 236 8 46 22 98 30 114 8 17 15 36 15 43 0 7 -31 29 -69 49 -38
20 -72 43 -75 51 -6 17 -2 17 27 3 19 -9 18 -7 -3 10 -14 11 -28 21 -33 21
-18 0 -227 -72 -232 -80 -9 -15 -106 -12 -164 6 -29 8 -55 13 -58 11 -2 -3 1
-15 7 -27 9 -17 9 -29 0 -51 -20 -47 -30 -23 -30 71 l0 89 48 48 c28 29 66 86
96 143 26 52 56 109 66 125 10 17 23 47 30 68 12 39 30 41 30 4 0 -32 16 -5
36 60 16 54 88 173 105 173 5 0 9 -8 9 -19 0 -10 24 -67 53 -127 30 -60 59
-120 65 -134 9 -22 11 -22 11 -5 1 11 -8 38 -20 60 -33 61 -49 124 -39 151 11
27 20 30 39 11 11 -10 12 2 6 65 -4 43 -4 91 0 107 6 27 8 28 48 24 72 -8 175
32 235 92 2 1 -16 0 -40 -2 l-43 -5 0 53 c0 30 -3 68 -7 85 l-7 32 143 -2 143
-1 64 -42 c35 -24 70 -47 77 -53 20 -17 15 20 -8 57 -28 47 -53 56 -156 54
l-93 -1 -35 54 c-20 29 -36 56 -36 61 0 4 12 4 26 1 21 -6 25 -4 21 8 -4 10 1
20 14 26 53 29 107 168 111 286 2 62 6 79 18 79 10 0 21 -23 34 -73 25 -95 14
-133 -55 -202 -57 -57 -51 -65 13 -17 78 59 96 132 58 242 -11 32 -19 59 -18
60 2 1 23 10 48 19 70 27 240 146 271 190 39 52 37 67 -3 28 -47 -44 -100 -64
-152 -57 -26 4 -47 14 -54 26 -10 15 -9 19 2 19 7 0 24 9 37 20 l24 21 -32
-16 c-37 -17 -129 -20 -170 -4 -15 6 -28 9 -28 7 -1 -2 -13 5 -28 15 -15 10
-32 15 -38 11 -22 -13 -36 30 -38 123 -1 69 1 93 9 88 21 -13 78 -111 94 -161
l16 -49 -5 50 c-3 28 -21 83 -40 124 -20 41 -34 76 -32 77 10 10 123 -22 153
-42 l34 -24 -15 30 c-21 42 -73 98 -120 133 l-40 29 108 -8 c59 -4 107 -4 107
-1 0 4 -14 14 -32 23 -70 36 -228 147 -228 160 0 7 20 25 45 40 46 26 143 132
169 182 7 15 19 45 26 67 7 22 21 52 31 67 32 44 21 54 -18 16 -78 -74 -135
-79 -228 -18 -78 51 -89 63 -168 190 -36 58 -87 129 -113 159 -44 49 -48 52
-56 32 -4 -11 -11 -21 -15 -21 -4 0 -39 28 -78 61 -57 50 -173 119 -201 119
-3 0 19 -24 50 -53 81 -76 74 -101 -13 -51 -121 70 -171 123 -118 125 19 0 18
2 -8 11 -39 14 -93 58 -71 58 9 0 16 5 16 10 0 26 126 -3 223 -52 59 -29 89
-30 65 -1 -11 14 -10 15 12 8 14 -4 30 -11 36 -16 12 -10 102 -39 119 -39 6 0
3 5 -5 10 -8 5 -12 10 -8 10 46 1 328 44 375 57 l61 18 -156 0 c-178 1 -268
17 -367 66 -83 41 -195 119 -214 148 -15 24 -15 24 9 17 14 -3 52 -11 85 -17
33 -5 84 -21 112 -34 61 -28 71 -25 14 4 -49 25 -186 58 -273 65 -133 10 -194
81 -110 125 39 21 16 28 -59 17 -69 -9 -73 -8 -87 12 -10 16 -25 22 -51 22
-58 0 -77 9 -94 45 -24 51 -75 104 -131 136 l-51 29 -335 0 -335 0 -120 -30
c-212 -53 -261 -75 -338 -149 l-38 -36 -97 0 c-116 0 -193 -22 -251 -71 l-39
-34 -58 15 c-31 8 -59 17 -62 20 -12 11 7 15 30 6 36 -14 48 3 48 69 0 69 11
90 36 69 16 -12 17 -12 12 2 -5 12 -1 15 18 11 20 -3 23 -1 18 13 -5 11 4 25
28 45 20 16 38 39 41 50 5 19 1 20 -63 20 l-68 0 -50 -82 c-27 -46 -56 -96
-65 -113 -8 -16 -31 -46 -50 -65 -19 -19 -33 -39 -31 -45 3 -6 -20 -25 -50
-43 l-54 -33 -38 17 c-22 9 -47 16 -56 15 -10 -1 -26 2 -35 8 -16 9 -13 11 15
17 25 5 30 9 21 20 -7 9 -6 19 5 36 22 34 149 146 224 198 36 25 67 51 70 58
3 9 -206 12 -997 12 l-1001 0 0 -776z m2970 716 c-8 -6 -24 -15 -35 -21 -16
-8 -15 -6 4 10 13 12 28 21 35 21 6 0 4 -5 -4 -10z m705 -34 c55 -38 110 -94
101 -103 -2 -3 -49 -11 -103 -19 -54 -8 -113 -17 -130 -20 -26 -5 -33 -3 -33
9 0 23 -56 65 -102 78 -23 6 -87 16 -143 23 l-100 13 70 21 c97 31 174 41 287
38 94 -2 98 -3 153 -40z m-815 9 c0 -2 -31 -23 -69 -45 -39 -23 -102 -68 -141
-101 -60 -51 -73 -58 -90 -49 -31 17 -24 32 33 74 85 62 267 145 267 121z
m-75 -117 c-88 -83 -118 -103 -141 -94 -7 3 -15 0 -17 -7 -2 -7 -8 -9 -12 -4
-8 7 9 26 50 57 14 10 13 7 -4 -13 -43 -48 -5 -29 49 26 53 52 137 115 154
116 5 1 -31 -36 -79 -81z m-1970 52 c3 -5 -3 -10 -14 -10 -12 0 -21 5 -21 10
0 6 6 10 14 10 8 0 18 -4 21 -10z m2641 -74 l28 -23 -23 -13 c-20 -10 -34 -8
-92 16 -38 15 -69 31 -69 36 0 4 29 8 64 8 54 0 70 -4 92 -24z m-303 -20 c73
-5 127 -25 70 -26 -17 0 -35 5 -38 10 -3 6 -12 10 -18 9 -9 0 -9 -2 1 -6 26
-10 10 -21 -45 -31 -35 -6 -65 -6 -75 -1 -26 14 -46 10 -20 -5 22 -12 21 -13
-36 -31 -69 -20 -123 -15 -101 11 17 20 74 61 65 46 -5 -8 0 -12 13 -12 12 0
20 5 19 12 -3 11 79 40 93 32 3 -2 35 -5 72 -8z m-720 -32 c8 -8 -70 -124 -88
-131 -8 -2 -28 5 -44 16 -16 12 -48 29 -72 39 l-42 18 36 23 c21 13 50 27 65
31 32 10 136 13 145 4z m127 -31 c0 -6 -79 -56 -112 -71 -17 -8 -7 18 18 47
19 24 34 31 60 31 19 0 34 -3 34 -7z m-544 -54 c44 -27 58 -53 44 -80 -6 -11
-14 -19 -18 -17 -64 29 -162 83 -162 89 0 14 34 28 69 29 18 0 49 -9 67 -21z
m244 -39 c62 -21 69 -30 39 -49 -20 -12 -25 -9 -63 28 -22 23 -39 41 -36 41 3
-1 30 -9 60 -20z m1600 -62 c0 -13 -23 -5 -28 10 -2 7 2 10 12 6 9 -3 16 -11
16 -16z m-1900 -112 c0 -7 -119 -96 -132 -99 -7 -1 -13 7 -14 18 -1 14 5 21
19 22 11 1 23 6 26 11 3 5 23 15 44 23 20 7 37 17 37 21 0 4 5 8 10 8 6 0 10
-2 10 -4z m4 -97 c-18 -20 -33 -28 -81 -43 -45 -14 -23 15 30 39 64 30 76 31
51 4z m-359 -225 c0 -14 -9 -20 -34 -22 -70 -7 -133 19 -83 34 9 3 31 11 47
19 35 15 70 0 70 -31z m780 -358 c12 -11 11 -17 -8 -34 -41 -37 -162 -94 -193
-90 -29 3 -28 4 20 33 27 17 70 47 95 67 51 40 66 45 86 24z m-207 -15 c12 -7
12 -12 1 -29 -16 -26 -31 -33 -49 -22 -11 7 -11 14 -2 34 12 27 27 32 50 17z
m282 -66 c0 -16 -75 -75 -97 -75 -21 0 -16 11 24 52 38 39 73 50 73 23z m448
8 c-10 -2 -28 -2 -40 0 -13 2 -5 4 17 4 22 1 32 -1 23 -4z m-213 -83 c14 -23
-79 -140 -97 -122 -18 18 54 132 81 132 6 0 13 -4 16 -10z m155 -87 c16 -16
-226 -169 -253 -160 -6 2 10 19 34 37 24 19 70 59 103 88 50 44 64 52 85 47
14 -4 28 -9 31 -12z m136 -35 c-2 -60 -29 -109 -95 -173 l-41 -39 0 31 c0 60
97 233 130 233 4 0 7 -24 6 -52z m-1656 -6 c-14 -9 -44 -34 -66 -54 -42 -39
-84 -50 -84 -23 0 8 -1 18 -2 21 -2 3 24 16 57 28 33 12 69 27 80 34 31 18 43
13 15 -6z m1748 -34 c-2 -27 0 -32 15 -30 26 4 21 -11 -28 -75 -40 -54 -108
-113 -129 -113 -5 0 -6 11 -4 25 4 21 2 23 -13 15 -23 -13 -39 -13 -39 1 0 9
188 209 197 209 3 0 3 -15 1 -32z m126 -105 c-9 -75 -20 -103 -40 -103 -14 0
-16 8 -10 54 8 71 22 106 41 106 14 0 15 -9 9 -57z m-1984 33 c0 -3 -4 -8 -10
-11 -5 -3 -10 -1 -10 4 0 6 5 11 10 11 6 0 10 -2 10 -4z m-204 -53 c-10 -10
-19 5 -10 18 6 11 8 11 12 0 2 -7 1 -15 -2 -18z m66 -176 c11 -15 44 -42 74
-58 l54 -31 -61 -49 c-65 -52 -84 -57 -113 -36 -17 12 -14 15 28 27 26 7 49
17 53 22 3 7 -3 7 -18 2 -13 -5 -42 -9 -64 -9 -37 0 -41 3 -59 40 -26 56 -19
165 15 201 l23 24 24 -52 c13 -29 33 -65 44 -81z m83 35 l7 -44 -24 16 c-14 9
-30 27 -36 41 -12 27 -4 33 17 13 7 -7 12 -8 11 -3 -2 6 -2 17 -1 25 2 27 19
-4 26 -48z m2535 27 c0 -10 -4 -19 -9 -19 -5 0 -8 11 -8 25 0 13 3 22 8 19 5
-3 9 -14 9 -25z m-2764 -46 c-4 -23 -1 -58 8 -86 12 -40 12 -46 1 -37 -18 15
-29 89 -20 129 9 44 18 39 11 -6z m2524 18 c0 -43 -54 -133 -75 -125 -12 5
-12 12 2 47 23 58 43 87 59 87 8 0 14 -4 14 -9z m-158 -23 c-6 -7 -25 -22 -44
-32 l-33 -19 20 23 c11 12 29 26 40 31 28 11 29 11 17 -3z m248 -12 c0 -17
-32 -15 -38 2 -2 7 6 12 17 12 12 0 21 -6 21 -14z m740 -43 c-1 -27 -1 -27
-15 -9 -19 25 -19 36 0 36 10 0 15 -10 15 -27z m-3168 -353 c-46 -44 -72 -61
-72 -45 0 3 7 21 15 40 14 36 41 53 84 54 22 1 19 -4 -27 -49z m3787 -209 c6
-10 13 -45 16 -77 l6 -59 -19 46 c-11 26 -27 57 -36 70 -21 31 -20 39 4 39 10
0 24 -9 29 -19z m-18 -137 c12 -54 11 -98 -3 -129 -14 -32 -21 -31 -43 1 -16
25 -16 31 1 105 19 83 29 89 45 23z m-1267 -34 c14 -22 26 -43 26 -48 0 -11
-108 -38 -116 -29 -10 10 37 117 51 117 7 0 24 -18 39 -40z m-2382 -59 c7 -6
-23 -138 -36 -159 -3 -6 -22 -16 -42 -22 -29 -10 -39 -9 -62 5 -69 45 -92 116
-53 166 18 23 24 24 102 21 46 -2 87 -7 91 -11z m2421 -148 c-7 -2 -21 -2 -30
0 -10 3 -4 5 12 5 17 0 24 -2 18 -5z m-3 -67 c0 -3 -4 -8 -10 -11 -5 -3 -10
-1 -10 4 0 6 5 11 10 11 6 0 10 -2 10 -4z m-1265 -16 c3 -5 1 -10 -4 -10 -6 0
-11 5 -11 10 0 6 2 10 4 10 3 0 8 -4 11 -10z m-111 -40 c7 -7 -1 -10 -26 -10
-21 0 -41 7 -49 17 -13 15 -11 16 25 10 22 -3 44 -11 50 -17z m2368 -7 c26
-29 52 -153 32 -153 -12 0 -51 25 -76 49 l-27 26 21 48 c23 52 28 55 50 30z
m-2022 -23 c11 -7 11 -10 2 -10 -7 0 -10 -5 -7 -10 4 -6 0 -22 -9 -35 -15 -23
-86 -45 -144 -45 l-27 1 30 13 c17 8 48 32 70 55 40 42 58 48 85 31z m890 -9
c16 -30 63 -59 121 -76 l54 -15 -90 4 c-49 2 -101 7 -115 11 l-25 6 25 -15
c14 -8 42 -18 64 -21 24 -5 34 -10 26 -15 -12 -7 81 -33 167 -45 23 -4 47 -13
54 -21 6 -8 22 -14 35 -14 24 0 32 -14 14 -25 -5 -3 -10 -19 -10 -34 0 -34
-38 -72 -100 -100 l-45 -21 48 6 c29 3 47 1 47 -5 0 -6 17 -5 45 3 32 10 45
11 48 2 3 -7 12 -4 26 8 21 19 21 19 21 -5 0 -16 -21 -43 -66 -87 -36 -35 -64
-65 -62 -67 7 -8 139 78 213 137 39 32 72 53 73 47 2 -5 -6 -27 -17 -50 -12
-22 -21 -49 -21 -59 0 -26 -103 -282 -135 -335 -39 -65 -160 -190 -269 -277
-55 -45 -144 -118 -196 -163 -104 -89 -231 -181 -298 -214 -35 -18 -55 -21
-105 -17 -34 2 -75 10 -92 17 -16 7 -45 14 -63 16 -36 4 -85 31 -77 43 2 4 -6
13 -20 20 -13 7 -26 23 -29 36 -4 15 -14 24 -26 24 -11 0 -20 4 -20 9 0 5 -13
11 -30 15 -20 3 -30 12 -30 23 0 15 -2 16 -10 3 -6 -9 -10 -10 -10 -3 0 6 -10
15 -21 18 -17 6 -19 9 -8 16 11 7 11 9 -2 9 -8 0 -35 22 -60 50 -24 27 -51 50
-59 51 -11 0 -12 2 -2 6 10 4 8 9 -7 20 -12 8 -19 19 -16 24 4 5 2 9 -3 9 -5
0 -15 13 -22 30 -7 16 -30 53 -51 82 -22 29 -42 63 -45 75 -4 13 -11 23 -16
23 -5 0 -8 6 -6 12 3 7 -1 19 -9 26 -7 7 -13 22 -13 33 0 19 1 19 31 4 17 -9
42 -15 57 -13 l27 3 -36 23 c-20 12 -48 37 -62 55 -22 29 -23 35 -11 52 11 14
25 19 57 18 l42 -2 -35 15 c-40 17 -80 52 -80 70 0 7 14 15 30 19 25 6 29 9
19 21 -10 12 -3 14 41 14 54 0 224 52 303 91 20 11 37 17 37 15 0 -2 -16 -23
-35 -46 -20 -24 -34 -45 -31 -47 2 -2 18 3 35 11 17 9 43 17 58 18 15 1 52 17
81 36 31 19 70 35 93 37 56 5 109 24 109 39 0 18 47 58 105 91 55 31 177 150
201 197 14 28 19 30 55 24 25 -4 39 -2 39 4 0 10 53 39 72 40 4 0 12 -9 18
-19z m234 -7 c3 -7 -1 -20 -9 -28 -19 -18 -111 -18 -126 0 -15 18 -14 19 46
37 54 15 81 13 89 -9z m94 -6 c-18 -28 -62 -54 -103 -63 l-30 -6 30 17 c17 9
45 30 63 45 40 35 61 38 40 7z m-1558 -39 c13 -15 58 -32 104 -39 l51 -8 -66
-1 c-82 -1 -158 21 -190 55 -17 20 -19 26 -7 21 10 -3 20 -2 23 3 5 8 73 -16
85 -31z m2430 -46 c0 -18 -4 -33 -10 -33 -5 0 -10 13 -10 29 0 16 -2 44 -5 62
l-5 34 14 -30 c9 -16 15 -45 16 -62z m-2313 57 c2 -22 -13 -26 -37 -10 -13 9
-13 11 0 20 23 15 36 12 37 -10z m76 6 c6 -14 -12 -26 -38 -26 -7 0 -15 8 -17
18 -4 14 1 18 22 20 16 1 30 -4 33 -12z m31 -259 c-8 -22 -99 -87 -131 -93
-26 -5 -31 -2 -36 18 -8 29 10 44 66 52 23 4 53 13 67 21 32 18 41 18 34 2z
m1696 -66 c0 -14 -52 -48 -83 -56 -46 -12 -30 11 26 38 62 31 57 29 57 18z
m-30 -182 c0 -18 -4 -28 -10 -24 -5 3 -10 20 -10 36 0 18 4 28 10 24 6 -3 10
-20 10 -36z m-2402 -39 c2 -18 1 -45 -3 -59 -6 -25 -7 -25 -21 -7 -23 32 -15
111 10 103 6 -2 12 -18 14 -37z m-24 -176 c11 -28 6 -39 -9 -20 -8 11 -15 23
-15 28 0 14 18 9 24 -8z m106 -15 c0 -11 -4 -17 -10 -14 -5 3 -10 15 -10 26 0
11 5 17 10 14 6 -3 10 -15 10 -26z m100 -16 c0 -7 -4 -13 -10 -13 -5 0 -10 12
-10 28 0 21 2 24 10 12 5 -8 10 -21 10 -27z m253 -98 l31 -40 -43 40 c-42 39
-81 101 -81 127 0 7 14 -9 32 -37 17 -27 44 -68 61 -90z m1924 73 c-4 -13 -23
-46 -42 -73 -41 -56 -40 -39 3 58 16 37 29 54 35 48 5 -5 7 -20 4 -33z m-340
-630 c-2 -13 -4 -3 -4 22 0 25 2 35 4 23 2 -13 2 -33 0 -45z m-2721 -722 c6
-26 -1 -46 -17 -46 -5 0 -9 16 -9 35 0 40 17 47 26 11z m3982 -297 c19 -12 20
-39 2 -39 -12 0 -70 50 -70 61 0 9 37 -2 68 -22z m286 -71 c9 -37 7 -128 -4
-128 -12 0 -14 8 -14 87 -1 64 7 81 18 41z m-74 -218 c0 -11 -4 -20 -10 -20
-5 0 -10 9 -10 20 0 11 5 20 10 20 6 0 10 -9 10 -20z m-605 -77 c6 -29 4 -33
-15 -33 -28 0 -35 23 -20 61 15 34 23 27 35 -28z"/>
<path d="M3766 2539 c-27 -21 -35 -49 -14 -49 30 0 78 25 73 38 -3 7 -5 18 -5
23 0 16 -26 10 -54 -12z"/>
<path d="M2917 2423 c-14 -22 35 -53 82 -53 46 0 46 17 0 23 -22 3 -49 13 -59
22 -10 9 -20 12 -23 8z"/>
<path d="M3748 2389 c-13 -14 -15 -28 -9 -71 l7 -53 8 45 c5 30 17 52 34 66
l26 21 -25 4 c-14 3 -31 -2 -41 -12z"/>
<path d="M2863 2353 c-31 -6 -29 -23 10 -65 45 -49 104 -67 160 -47 32 11 42
19 42 36 1 28 13 40 45 45 14 1 25 8 25 13 0 15 -51 18 -77 4 -26 -14 -76 -12
-95 3 -7 6 -13 7 -13 2 0 -4 -5 -3 -12 4 -12 12 -41 13 -85 5z"/>
<path d="M2875 2043 c-16 -9 -61 -19 -100 -22 -115 -10 -73 -26 75 -29 74 -1
158 -2 185 -2 28 1 106 2 175 3 75 1 125 6 125 12 0 6 -14 9 -30 7 -17 -2 -53
2 -80 8 -28 7 -93 16 -145 21 -52 4 -113 11 -135 14 -28 4 -49 0 -70 -12z"/>
<path d="M2900 1866 c-32 -12 -36 -18 -31 -45 0 -4 38 -18 84 -30 66 -18 90
-20 125 -13 89 20 113 61 49 81 -56 17 -189 22 -227 7z"/>
<path d="M4760 5990 c0 -10 9 -24 20 -30 11 -6 20 -17 20 -24 0 -17 35 -48 43
-39 4 3 7 1 7 -5 0 -18 24 -14 48 8 12 11 26 20 32 20 6 0 8 5 4 12 -5 8 -2 9
9 5 11 -4 22 3 34 23 9 17 23 30 30 30 7 0 13 5 13 10 0 6 -50 10 -130 10
-123 0 -130 -1 -130 -20z"/>
<path d="M5316 5971 c5 -31 2 -41 -13 -52 -10 -8 -32 -43 -48 -79 -25 -57 -29
-79 -33 -186 -4 -112 -2 -127 23 -200 15 -43 35 -89 46 -102 22 -28 99 -88
131 -102 13 -5 36 -20 51 -32 29 -24 67 -27 155 -13 42 7 43 7 31 -13 -7 -12
-22 -25 -34 -30 -15 -8 -7 -10 35 -10 30 0 80 -1 110 -2 34 -2 74 4 105 15 28
10 69 17 93 16 l42 -1 0 415 0 415 -350 0 -350 0 6 -39z"/>
<path d="M4638 5273 c7 -3 16 -2 19 1 4 3 -2 6 -13 5 -11 0 -14 -3 -6 -6z"/>
<path d="M5485 4463 c-78 -84 -119 -109 -220 -133 -64 -16 -67 -18 -40 -24 56
-14 77 -26 71 -41 -4 -10 1 -15 16 -15 24 0 146 120 196 192 26 38 58 100 49
97 -1 0 -33 -34 -72 -76z"/>
<path d="M5892 3493 c2 -37 7 -67 13 -67 5 1 17 17 27 35 17 31 17 34 0 63
-32 54 -43 45 -40 -31z"/>
<path d="M5567 3313 c-3 -16 -1 -32 4 -37 5 -6 9 4 9 27 0 44 -6 48 -13 10z"/>
<path d="M4341 2392 c-1 -18 27 -73 52 -99 23 -26 60 -29 97 -9 24 14 23 14
-25 21 -49 8 -73 25 -107 75 -9 14 -17 19 -17 12z"/>
<path d="M4197 2217 c-25 -39 -21 -51 30 -96 49 -44 63 -47 41 -9 -7 12 -22
47 -33 77 l-21 54 -17 -26z"/>
<path d="M5782 1863 c-15 -26 -15 -53 -2 -53 11 0 24 43 18 62 -3 8 -9 5 -16
-9z"/>
</g>
</svg>
